<?xml version="1.0" encoding="utf-8"?>
<!-- Generator: Adobe Illustrator 25.1.0, SVG Export Plug-In . SVG Version: 6.00 Build 0)  -->
<svg version="1.1" id="Payoneer_logo" xmlns="http://www.w3.org/2000/svg" xmlns:xlink="http://www.w3.org/1999/xlink" x="0px"
	 y="0px" viewBox="0 0 337.4 380" style="enable-background:new 0 0 337.4 380;" xml:space="preserve">
<style type="text/css">
	.st0{fill:#252526;}
</style>
<path class="st0" d="M9.9,365.6v-18.3h7.9c14.7,0,23.5-8.2,23.5-20.4c0-11.5-8.9-18.2-21.8-18.2H0.4v56.9H9.9z M19,317.2
	c7.5,0,12.6,3.5,12.6,10.8c0,6.8-5.7,10.8-13.1,10.8H9.9v-21.7H19z M172.8,345.7c0.2-11.2-8.6-20.4-19.8-20.7c-0.3,0-0.6,0-0.9,0
	c-11.3,0-20.6,9.2-20.6,20.5c0,0.1,0,0.2,0,0.3c0,11.9,8.6,20.5,20.6,20.5c11.3,0.2,20.5-8.8,20.7-20.1
	C172.8,346.1,172.8,345.9,172.8,345.7L172.8,345.7z M140.5,345.7c0-6.8,5-12,11.6-12c6.6,0.2,11.9,5.7,11.7,12.4
	c-0.2,6.4-5.3,11.5-11.7,11.7C145.5,357.8,140.5,352.5,140.5,345.7z M262,348.1c0.2-1.4,0.3-2.8,0.3-4.1c0-11.1-8.5-18.9-19.2-18.9
	c-11.2-0.1-20.4,8.8-20.5,20c0,0.2,0,0.3,0,0.5c0,12.1,8,20.8,20.2,20.8c8.2,0,15.1-3.9,18-9.3l-7-3.9c-1.9,3-5.8,5.2-10.3,5.2
	c-6.3,0-10.7-3.8-11.6-10.2H262z M232.3,341.2c0.9-5.1,5.4-8.7,10.5-8.5c5.5,0,9.7,3.5,10.2,8.5H232.3z M121.6,325.8l-11,28.4
	l-9.8-28.4H90.6l14.7,39.8l-6.1,14h9.7l22.4-53.8H121.6z M337,326c-1.3-0.4-2.6-0.5-3.9-0.5c-3.9,0-8.3,2.2-10.2,6v-5.7h-9v39.8h9
	v-21.3c0-7.4,4.9-10.4,10-10.4c1.3,0,2.7,0.1,4,0.4L337,326L337,326z M307.4,348.1c0.2-1.4,0.3-2.8,0.3-4.1
	c0-11.1-8.5-18.9-19.2-18.9c-11.2-0.1-20.4,8.8-20.5,20c0,0.2,0,0.3,0,0.5c0,12.1,8,20.8,20.2,20.8c8.2,0,15.1-3.9,18-9.3l-7-3.9
	c-1.9,3-5.8,5.2-10.3,5.2c-6.3,0-10.7-3.8-11.6-10.2H307.4z M277.6,341.2c0.9-5.1,5.4-8.7,10.5-8.5c5.5,0,9.7,3.5,10.2,8.5H277.6z
	 M76.3,345.6c0.2,6.8-5.2,12.5-12,12.6c-0.2,0-0.4,0-0.6,0c-6.9,0-11.6-5.4-11.6-12.6c0.1-6.9,5.6-12.4,12.4-12.5
	C71.6,333.1,76.3,338.5,76.3,345.6z M216.5,342.9c0-11.1-5.4-17.9-15.6-17.9c-5.3,0-10.2,2.3-13,5.9v-5.2h-9.1v39.8h9.1V344
	c0-6.7,4.8-10.9,10.6-10.9c5.8,0,8.8,3.9,8.8,10.5v22h9.1L216.5,342.9L216.5,342.9z M76.3,325.8v5.2c-2.6-3.5-6.9-5.9-13.2-5.9
	c-11,0-20.2,9.7-20.2,21.2c0,11.5,7.9,20.2,18.5,20.2c6.9,0,12-2.5,14.9-6.5v5.8h8.9v-39.8H76.3z"/>
<path class="st0" d="M169.4,0.4C93.3,0.4,31.7,62,31.7,138.1s61.7,137.7,137.7,137.7c76.1,0,137.7-61.7,137.7-137.7
	C307.1,62,245.5,0.4,169.4,0.4C169.4,0.4,169.4,0.4,169.4,0.4z M169.4,252.5C106.2,252.5,55,201.3,55,138.1S106.2,23.7,169.4,23.7
	s114.4,51.2,114.4,114.4C283.8,201.3,232.6,252.5,169.4,252.5C169.4,252.5,169.4,252.5,169.4,252.5L169.4,252.5z"/>
</svg>
